# xmcd
#
# Track frame offsets: 
#        151
#        11158
#        24783
#        36246
#        47364
#        59152
#        71128
#        81631
#        94119
#        104534
#        116565
#        128392
#        141462
#        153063
#        165675
#        176357
#        187591
#        200010
#        211007
#        223195
#        234402
#        243381
#        255171
#        266110
#        276489
#
# Disc length: 3821 seconds
#
# Revision: 0
# Processed by: cddbd v1.5.2PL0 Copyright (c) Steve Scherf et al.
# Submitted via: ExactAudioCopyFreeDBPlugin 1.0
#
DISCID=640eeb19
DTITLE=Hank Thompson - Swing Wide Your Gate Of Love 1948-1953
DYEAR=2004
DGENRE=Country
TTITLE0=Humpty Dumpty Heart
TTITLE1=Today
TTITLE2=Don't Flirt With Me
TTITLE3=Rock In The Ocean
TTITLE4=California Women
TTITLE5=Tomorrow Night
TTITLE6=Whoa Sailor
TTITLE7=Soft Lips
TTITLE8=The Grass Looks Greener Over Yonder
TTITLE9=I Find You Cheatin' On Me
TTITLE10=You Broke My Heart (In Little Bitty Pieces)
TTITLE11=My Heart Is A Jigsaw Puzzle
TTITLE12=Take A Look At This Broken Heart
TTITLE13=Give A Little Take A Little
TTITLE14=Swing Wide Your Gate Of Love
TTITLE15=My Front Door Is Open
TTITLE16=The Wild Side Of Life
TTITLE17=Waiting In The Lobby Of Your Heart
TTITLE18=The New Wears Off Too Fast
TTITLE19=You're Walking On My Heart
TTITLE20=No Help Wanted
TTITLE21=A Broken Heart And A Glass Of Beer
TTITLE22=New Roving Gambler
TTITLE23=Wake Up Irene
TTITLE24=Rub-A-Dub-Dub
EXTD=
EXTT0=
EXTT1=
EXTT2=
EXTT3=
EXTT4=
EXTT5=
EXTT6=
EXTT7=
EXTT8=
EXTT9=
EXTT10=
EXTT11=
EXTT12=
EXTT13=
EXTT14=
EXTT15=
EXTT16=
EXTT17=
EXTT18=
EXTT19=
EXTT20=
EXTT21=
EXTT22=
EXTT23=
EXTT24=
PLAYORDER=
